<mxfile host="app.diagrams.net" modified="2023-05-17T19:16:19.455Z" agent="Mozilla/5.0 (X11; Ubuntu; Linux x86_64; rv:109.0) Gecko/20100101 Firefox/112.0" etag="ZYXma-AtVuo5yu0oB8tU" version="21.3.2" type="github">
  <diagram name="Page-1" id="74e2e168-ea6b-b213-b513-2b3c1d86103e">
    <mxGraphModel dx="1434" dy="732" grid="1" gridSize="10" guides="1" tooltips="1" connect="1" arrows="1" fold="1" page="1" pageScale="1" pageWidth="1100" pageHeight="850" background="none" math="0" shadow="0">
      <root>
        <mxCell id="0" />
        <mxCell id="1" parent="0" />
        <mxCell id="SkMRvpGJVAJFdUwYRoN6-10" value="New build" style="edgeStyle=orthogonalEdgeStyle;rounded=0;orthogonalLoop=1;jettySize=auto;html=1;exitX=1;exitY=0.5;exitDx=0;exitDy=0;entryX=0;entryY=0.5;entryDx=0;entryDy=0;" edge="1" parent="1" source="SkMRvpGJVAJFdUwYRoN6-1" target="SkMRvpGJVAJFdUwYRoN6-2">
          <mxGeometry relative="1" as="geometry" />
        </mxCell>
        <mxCell id="SkMRvpGJVAJFdUwYRoN6-24" value="Information that all bugs are fixed" style="edgeStyle=orthogonalEdgeStyle;rounded=0;orthogonalLoop=1;jettySize=auto;html=1;entryX=0.5;entryY=1;entryDx=0;entryDy=0;" edge="1" parent="1" source="SkMRvpGJVAJFdUwYRoN6-1" target="SkMRvpGJVAJFdUwYRoN6-2">
          <mxGeometry relative="1" as="geometry">
            <Array as="points">
              <mxPoint x="215" y="480" />
              <mxPoint x="470" y="480" />
            </Array>
          </mxGeometry>
        </mxCell>
        <mxCell id="SkMRvpGJVAJFdUwYRoN6-1" value="Build" style="rhombus;whiteSpace=wrap;html=1;" vertex="1" parent="1">
          <mxGeometry x="140" y="252.5" width="150" height="135" as="geometry" />
        </mxCell>
        <mxCell id="SkMRvpGJVAJFdUwYRoN6-14" value="Build ready for release" style="edgeStyle=orthogonalEdgeStyle;rounded=0;orthogonalLoop=1;jettySize=auto;html=1;" edge="1" parent="1" source="SkMRvpGJVAJFdUwYRoN6-2" target="SkMRvpGJVAJFdUwYRoN6-4">
          <mxGeometry relative="1" as="geometry">
            <mxPoint x="690" y="320" as="targetPoint" />
          </mxGeometry>
        </mxCell>
        <mxCell id="SkMRvpGJVAJFdUwYRoN6-23" value="Bugs found and returned" style="edgeStyle=orthogonalEdgeStyle;rounded=0;orthogonalLoop=1;jettySize=auto;html=1;exitX=0.5;exitY=0;exitDx=0;exitDy=0;entryX=0.5;entryY=0;entryDx=0;entryDy=0;" edge="1" parent="1" source="SkMRvpGJVAJFdUwYRoN6-2" target="SkMRvpGJVAJFdUwYRoN6-1">
          <mxGeometry relative="1" as="geometry">
            <mxPoint x="210" y="250" as="targetPoint" />
            <mxPoint x="410" y="160" as="sourcePoint" />
            <Array as="points">
              <mxPoint x="470" y="160" />
              <mxPoint x="215" y="160" />
            </Array>
          </mxGeometry>
        </mxCell>
        <mxCell id="SkMRvpGJVAJFdUwYRoN6-2" value="Test" style="rhombus;whiteSpace=wrap;html=1;" vertex="1" parent="1">
          <mxGeometry x="400" y="250" width="140" height="140" as="geometry" />
        </mxCell>
        <mxCell id="SkMRvpGJVAJFdUwYRoN6-19" style="edgeStyle=orthogonalEdgeStyle;rounded=0;orthogonalLoop=1;jettySize=auto;html=1;entryX=0;entryY=0.5;entryDx=0;entryDy=0;" edge="1" parent="1" source="SkMRvpGJVAJFdUwYRoN6-4" target="SkMRvpGJVAJFdUwYRoN6-18">
          <mxGeometry relative="1" as="geometry" />
        </mxCell>
        <mxCell id="SkMRvpGJVAJFdUwYRoN6-4" value="AMs confirms customers" style="rounded=0;whiteSpace=wrap;html=1;" vertex="1" parent="1">
          <mxGeometry x="740" y="290" width="120" height="60" as="geometry" />
        </mxCell>
        <mxCell id="SkMRvpGJVAJFdUwYRoN6-16" value="" style="endArrow=none;html=1;rounded=0;exitX=0;exitY=0.5;exitDx=0;exitDy=0;" edge="1" parent="1" source="SkMRvpGJVAJFdUwYRoN6-1" target="SkMRvpGJVAJFdUwYRoN6-17">
          <mxGeometry width="50" height="50" relative="1" as="geometry">
            <mxPoint x="520" y="410" as="sourcePoint" />
            <mxPoint x="570" y="360" as="targetPoint" />
          </mxGeometry>
        </mxCell>
        <mxCell id="SkMRvpGJVAJFdUwYRoN6-17" value="End of Dev" style="triangle;whiteSpace=wrap;html=1;" vertex="1" parent="1">
          <mxGeometry x="10" y="260" width="110" height="120" as="geometry" />
        </mxCell>
        <mxCell id="SkMRvpGJVAJFdUwYRoN6-18" value="Release conducted" style="ellipse;whiteSpace=wrap;html=1;" vertex="1" parent="1">
          <mxGeometry x="920" y="280" width="140" height="80" as="geometry" />
        </mxCell>
      </root>
    </mxGraphModel>
  </diagram>
</mxfile>
